<?xml version="1.0" standalone="no"?>
<!DOCTYPE svg PUBLIC "-//W3C//DTD SVG 20010904//EN"
 "http://www.w3.org/TR/2001/REC-SVG-20010904/DTD/svg10.dtd">
<svg version="1.0" xmlns="http://www.w3.org/2000/svg"
 width="16.000000pt" height="16.000000pt" viewBox="0 0 16.000000 16.000000"
 preserveAspectRatio="xMidYMid meet">
<metadata>
Created by potrace 1.11, written by Peter Selinger 2001-2013
</metadata>
<g transform="translate(0.000000,16.000000) scale(0.001667,-0.001667)"
fill="#000000" stroke="none">
<path d="M4848 7575 c-2 -2 -55 -5 -118 -9 -127 -7 -156 -10 -280 -32 -47 -9
-96 -18 -110 -20 -14 -3 -43 -10 -65 -16 -22 -5 -47 -12 -56 -13 -143 -28
-596 -215 -663 -274 -10 -9 -21 -16 -25 -15 -13 2 -288 -180 -311 -206 -3 -3
-18 -16 -35 -29 -94 -72 -242 -214 -347 -332 -302 -342 -522 -774 -622 -1221
-14 -62 -28 -135 -32 -163 -3 -27 -7 -52 -9 -55 -2 -3 -6 -41 -10 -85 -4 -44
-9 -89 -11 -100 -6 -25 -5 -367 0 -415 2 -19 7 -65 11 -102 3 -37 7 -75 9 -85
2 -10 7 -38 11 -63 14 -86 16 -95 20 -110 2 -8 7 -29 10 -47 9 -55 73 -268
110 -370 92 -247 282 -576 450 -778 384 -462 879 -779 1445 -929 52 -14 109
-27 125 -30 17 -3 41 -8 55 -11 14 -3 39 -7 55 -10 17 -3 41 -7 55 -10 182
-33 576 -38 755 -10 17 3 46 7 65 9 79 10 121 18 258 52 393 97 728 258 1052
509 223 172 455 426 619 675 74 114 197 345 238 450 89 223 152 451 178 640 3
25 8 52 10 60 17 65 26 454 13 595 -12 120 -26 239 -33 265 -2 8 -7 31 -10 50
-10 61 -54 228 -84 318 -101 305 -252 591 -438 829 -102 131 -122 153 -252
283 -314 312 -682 537 -1099 670 -99 32 -305 84 -377 95 -22 3 -53 8 -70 11
-89 16 -476 39 -487 29z m292 -299 c376 -30 777 -164 1101 -366 348 -219 647
-529 849 -880 42 -75 134 -266 151 -315 7 -22 16 -44 20 -50 13 -19 94 -297
104 -360 7 -40 26 -151 31 -175 24 -138 24 -536 0 -670 -3 -14 -7 -43 -11 -64
-3 -21 -7 -48 -10 -60 -3 -12 -7 -32 -9 -46 -44 -268 -211 -654 -394 -915
-121 -171 -308 -378 -431 -475 -24 -19 -48 -40 -55 -45 -42 -39 -159 -121
-286 -200 -103 -65 -425 -211 -505 -230 -5 -1 -17 -5 -25 -8 -56 -23 -293 -75
-420 -92 -169 -23 -539 -23 -643 0 -12 2 -35 6 -52 9 -27 3 -109 18 -172 30
-105 21 -323 93 -461 153 -115 51 -313 162 -412 231 -149 105 -351 286 -450
402 -12 14 -31 36 -43 50 -100 114 -244 336 -324 500 -116 238 -200 508 -228
729 -4 30 -8 62 -10 72 -6 31 -17 212 -17 285 -1 73 10 266 16 299 2 11 7 43
10 70 6 44 30 167 42 218 2 9 6 27 9 39 61 281 261 680 470 938 100 124 266
295 326 338 12 8 30 23 39 31 51 48 185 143 300 211 330 199 720 323 1083 346
51 3 93 7 94 8 5 4 233 -2 313 -8z"/>
<path d="M4769 6763 c-85 -152 -170 -306 -190 -342 -20 -36 -45 -82 -56 -101
-11 -19 -99 -177 -195 -350 -97 -173 -184 -331 -195 -350 -11 -19 -34 -60 -50
-90 -17 -30 -47 -84 -67 -118 -20 -35 -36 -65 -36 -67 0 -2 -15 -30 -33 -62
-35 -60 -77 -138 -167 -308 -29 -55 -56 -104 -60 -110 -4 -5 -35 -64 -70 -130
-35 -66 -66 -124 -70 -130 -4 -5 -38 -68 -75 -140 -37 -71 -71 -134 -75 -140
-4 -5 -34 -59 -65 -120 -32 -60 -61 -114 -65 -120 -4 -5 -33 -59 -65 -120 -32
-60 -71 -135 -88 -165 -35 -65 -80 -149 -131 -242 -20 -37 -36 -70 -36 -73 0
-3 248 -5 550 -5 l550 0 0 145 0 145 -310 0 -310 0 24 43 c39 71 92 169 131
242 21 39 54 102 75 140 21 39 52 97 70 130 61 113 102 190 135 250 18 33 54
101 80 150 26 50 60 113 75 140 15 28 41 75 57 105 79 147 121 224 178 325 34
61 79 142 100 180 21 39 98 176 170 305 72 129 185 331 250 448 65 117 119
211 120 210 1 -2 73 -133 160 -293 87 -159 166 -304 176 -322 10 -18 35 -63
55 -100 20 -37 47 -86 59 -108 24 -43 59 -107 120 -220 21 -38 84 -153 140
-255 56 -102 145 -264 197 -360 53 -96 107 -195 120 -220 177 -320 258 -471
258 -479 0 -6 3 -11 8 -11 4 0 12 -10 18 -23 19 -42 117 -222 130 -242 8 -11
14 -23 14 -27 0 -5 -137 -8 -305 -8 -237 0 -305 -3 -306 -12 -1 -16 -1 -224 0
-255 l1 -23 550 0 c303 0 550 3 550 6 0 3 -51 98 -114 212 -62 114 -130 239
-151 277 -21 39 -74 135 -118 215 -116 211 -123 223 -257 470 -68 123 -130
238 -140 255 -9 16 -61 111 -115 210 -54 99 -109 200 -123 225 -13 25 -41 74
-60 110 -19 36 -96 175 -170 310 -74 135 -150 274 -169 310 -20 36 -43 79 -53
95 -9 17 -34 62 -55 100 -21 39 -52 95 -68 125 -36 66 -144 263 -167 305 -9
17 -54 99 -99 183 -46 83 -84 152 -85 152 -2 0 -72 -125 -157 -277z"/>
<path d="M4799 5699 c-8 -5 -11 -145 -11 -510 1 -277 1 -514 1 -527 1 -18 6
-23 24 -22 12 1 28 2 35 1 9 -1 12 -62 12 -268 l0 -266 -77 -74 c-179 -172
-268 -259 -285 -280 -18 -21 -16 -26 47 -190 36 -92 70 -177 74 -188 5 -11 73
-186 152 -390 78 -203 143 -371 144 -373 2 -3 61 146 152 383 41 106 200 516
246 630 17 44 33 89 34 100 2 14 -48 69 -182 199 l-185 179 0 268 c0 208 3
269 13 270 6 1 21 2 31 3 19 1 19 15 18 521 0 286 -1 525 -1 530 -1 11 -224
15 -242 4z"/>
</g>
</svg>
